<mxfile host="app.diagrams.net" modified="2022-10-05T18:20:03.891Z" agent="5.0 (X11)" etag="o5v6uzc9S1JtrGXEGyEU" version="20.4.0" type="github">
  <diagram id="_ERInNYk8qao0kNcVYKG" name="Page-1">
    <mxGraphModel dx="774" dy="654" grid="1" gridSize="10" guides="1" tooltips="1" connect="1" arrows="1" fold="1" page="1" pageScale="1" pageWidth="850" pageHeight="1100" math="0" shadow="0">
      <root>
        <mxCell id="0" />
        <mxCell id="1" parent="0" />
        <mxCell id="aoBe8RqoVNeD4NbxdGGK-1" value="" style="endArrow=classic;html=1;rounded=0;exitX=0.5;exitY=0;exitDx=0;exitDy=0;" edge="1" parent="1" source="aoBe8RqoVNeD4NbxdGGK-22" target="aoBe8RqoVNeD4NbxdGGK-2">
          <mxGeometry width="50" height="50" relative="1" as="geometry">
            <mxPoint x="180" y="310" as="sourcePoint" />
            <mxPoint x="250" y="310" as="targetPoint" />
          </mxGeometry>
        </mxCell>
        <mxCell id="aoBe8RqoVNeD4NbxdGGK-42" style="edgeStyle=orthogonalEdgeStyle;rounded=0;orthogonalLoop=1;jettySize=auto;html=1;entryX=0.5;entryY=0;entryDx=0;entryDy=0;" edge="1" parent="1" source="aoBe8RqoVNeD4NbxdGGK-2" target="aoBe8RqoVNeD4NbxdGGK-43">
          <mxGeometry relative="1" as="geometry">
            <mxPoint x="140" y="240" as="targetPoint" />
          </mxGeometry>
        </mxCell>
        <mxCell id="aoBe8RqoVNeD4NbxdGGK-2" value="&lt;div&gt;&lt;b&gt;Idle&lt;br&gt;&lt;/b&gt;&lt;/div&gt;&lt;div&gt;&lt;b&gt;&lt;br&gt;&lt;/b&gt;&lt;/div&gt;&lt;div&gt;&lt;b&gt;&lt;br&gt;&lt;/b&gt;&lt;/div&gt;&lt;div&gt;&lt;b&gt;&lt;br&gt;&lt;/b&gt;&lt;/div&gt;" style="ellipse;whiteSpace=wrap;html=1;aspect=fixed;" vertex="1" parent="1">
          <mxGeometry x="210" y="190" width="80" height="80" as="geometry" />
        </mxCell>
        <mxCell id="aoBe8RqoVNeD4NbxdGGK-6" value="" style="endArrow=classic;html=1;rounded=0;exitX=1;exitY=0.5;exitDx=0;exitDy=0;" edge="1" parent="1" target="aoBe8RqoVNeD4NbxdGGK-7" source="aoBe8RqoVNeD4NbxdGGK-2">
          <mxGeometry width="50" height="50" relative="1" as="geometry">
            <mxPoint x="310" y="310" as="sourcePoint" />
            <mxPoint x="380" y="310" as="targetPoint" />
          </mxGeometry>
        </mxCell>
        <mxCell id="aoBe8RqoVNeD4NbxdGGK-7" value="&lt;div&gt;&lt;b&gt;Store&lt;/b&gt;&lt;/div&gt;&lt;div&gt;op = LOAD1&lt;/div&gt;&lt;div&gt;dest = 3&lt;/div&gt;&lt;div&gt;err = 0&lt;br&gt;&lt;/div&gt;" style="ellipse;whiteSpace=wrap;html=1;aspect=fixed;" vertex="1" parent="1">
          <mxGeometry x="350" y="190" width="80" height="80" as="geometry" />
        </mxCell>
        <mxCell id="aoBe8RqoVNeD4NbxdGGK-8" value="" style="endArrow=classic;html=1;rounded=0;exitX=1;exitY=0.5;exitDx=0;exitDy=0;" edge="1" parent="1" target="aoBe8RqoVNeD4NbxdGGK-9" source="aoBe8RqoVNeD4NbxdGGK-7">
          <mxGeometry width="50" height="50" relative="1" as="geometry">
            <mxPoint x="440" y="310" as="sourcePoint" />
            <mxPoint x="510" y="310" as="targetPoint" />
          </mxGeometry>
        </mxCell>
        <mxCell id="aoBe8RqoVNeD4NbxdGGK-9" value="&lt;div&gt;&lt;b&gt;Zero&lt;/b&gt;&lt;/div&gt;&lt;div&gt;op = SUB&lt;/div&gt;&lt;div&gt;src1 = 0&lt;/div&gt;&lt;div&gt;src2 = 0&lt;/div&gt;&lt;div&gt;det = 0&lt;br&gt;&lt;/div&gt;" style="ellipse;whiteSpace=wrap;html=1;aspect=fixed;" vertex="1" parent="1">
          <mxGeometry x="490" y="190" width="80" height="80" as="geometry" />
        </mxCell>
        <mxCell id="aoBe8RqoVNeD4NbxdGGK-10" value="" style="endArrow=classic;html=1;rounded=0;exitX=1;exitY=0.5;exitDx=0;exitDy=0;" edge="1" parent="1" target="aoBe8RqoVNeD4NbxdGGK-11" source="aoBe8RqoVNeD4NbxdGGK-9">
          <mxGeometry width="50" height="50" relative="1" as="geometry">
            <mxPoint x="570" y="310" as="sourcePoint" />
            <mxPoint x="640" y="310" as="targetPoint" />
          </mxGeometry>
        </mxCell>
        <mxCell id="aoBe8RqoVNeD4NbxdGGK-15" value="" style="edgeStyle=orthogonalEdgeStyle;rounded=0;orthogonalLoop=1;jettySize=auto;html=1;" edge="1" parent="1" source="aoBe8RqoVNeD4NbxdGGK-11" target="aoBe8RqoVNeD4NbxdGGK-14">
          <mxGeometry relative="1" as="geometry" />
        </mxCell>
        <mxCell id="aoBe8RqoVNeD4NbxdGGK-11" value="&lt;div&gt;&lt;b&gt;sort1&lt;/b&gt;&lt;/div&gt;&lt;div&gt;op = COPY&lt;br&gt;&lt;/div&gt;&lt;div&gt;dest = 1&lt;/div&gt;&lt;div&gt;src1 = 2&lt;br&gt;&lt;/div&gt;" style="ellipse;whiteSpace=wrap;html=1;aspect=fixed;" vertex="1" parent="1">
          <mxGeometry x="640" y="240" width="80" height="80" as="geometry" />
        </mxCell>
        <mxCell id="aoBe8RqoVNeD4NbxdGGK-17" value="" style="edgeStyle=orthogonalEdgeStyle;rounded=0;orthogonalLoop=1;jettySize=auto;html=1;" edge="1" parent="1" source="aoBe8RqoVNeD4NbxdGGK-14" target="aoBe8RqoVNeD4NbxdGGK-16">
          <mxGeometry relative="1" as="geometry" />
        </mxCell>
        <mxCell id="aoBe8RqoVNeD4NbxdGGK-14" value="&lt;div&gt;&lt;b&gt;sort2&lt;/b&gt;&lt;/div&gt;&lt;div&gt;op = COPY&lt;br&gt;&lt;/div&gt;&lt;div&gt;dest = 2&lt;br&gt;&lt;/div&gt;&lt;div&gt;src1 = 3&lt;br&gt;&lt;/div&gt;" style="ellipse;whiteSpace=wrap;html=1;aspect=fixed;" vertex="1" parent="1">
          <mxGeometry x="640" y="380" width="80" height="80" as="geometry" />
        </mxCell>
        <mxCell id="aoBe8RqoVNeD4NbxdGGK-16" value="&lt;b&gt;mull&lt;/b&gt;&lt;div&gt;op = MUL&lt;/div&gt;&lt;div&gt;dest = 7&lt;br&gt;&lt;/div&gt;&lt;div&gt;src1 = 1&lt;/div&gt;&lt;div&gt;src2 = 4&lt;br&gt;&lt;/div&gt;" style="ellipse;whiteSpace=wrap;html=1;aspect=fixed;" vertex="1" parent="1">
          <mxGeometry x="640" y="520" width="80" height="80" as="geometry" />
        </mxCell>
        <mxCell id="aoBe8RqoVNeD4NbxdGGK-21" value="" style="edgeStyle=orthogonalEdgeStyle;rounded=0;orthogonalLoop=1;jettySize=auto;html=1;" edge="1" parent="1" source="aoBe8RqoVNeD4NbxdGGK-18" target="aoBe8RqoVNeD4NbxdGGK-20">
          <mxGeometry relative="1" as="geometry" />
        </mxCell>
        <mxCell id="aoBe8RqoVNeD4NbxdGGK-18" value="&lt;b&gt;add&lt;/b&gt;&lt;div&gt;op = ADD&lt;/div&gt;&lt;div&gt;dest = 0&lt;br&gt;&lt;/div&gt;&lt;div&gt;src1 = 0&lt;br&gt;&lt;/div&gt;&lt;div&gt;src2 = 6&lt;br&gt;&lt;/div&gt;" style="ellipse;whiteSpace=wrap;html=1;aspect=fixed;" vertex="1" parent="1">
          <mxGeometry x="545" y="610" width="80" height="80" as="geometry" />
        </mxCell>
        <mxCell id="aoBe8RqoVNeD4NbxdGGK-23" value="" style="edgeStyle=orthogonalEdgeStyle;rounded=0;orthogonalLoop=1;jettySize=auto;html=1;" edge="1" parent="1" source="aoBe8RqoVNeD4NbxdGGK-20" target="aoBe8RqoVNeD4NbxdGGK-22">
          <mxGeometry relative="1" as="geometry" />
        </mxCell>
        <mxCell id="aoBe8RqoVNeD4NbxdGGK-20" value="&lt;b&gt;mul2&lt;/b&gt;&lt;div&gt;op = MUL&lt;/div&gt;&lt;div&gt;dest = 6&lt;br&gt;&lt;/div&gt;&lt;div&gt;src1 = 2&lt;br&gt;&lt;/div&gt;&lt;div&gt;src2 = 5&lt;br&gt;&lt;/div&gt;" style="ellipse;whiteSpace=wrap;html=1;aspect=fixed;" vertex="1" parent="1">
          <mxGeometry x="400" y="610" width="80" height="80" as="geometry" />
        </mxCell>
        <mxCell id="aoBe8RqoVNeD4NbxdGGK-22" value="&lt;b&gt;sub&lt;/b&gt;&lt;div&gt;op = SUB&lt;/div&gt;&lt;div&gt;dest = 0&lt;br&gt;&lt;/div&gt;&lt;div&gt;src1 = 0&lt;br&gt;&lt;/div&gt;&lt;div&gt;src2 = 6&lt;br&gt;&lt;/div&gt;" style="ellipse;whiteSpace=wrap;html=1;aspect=fixed;" vertex="1" parent="1">
          <mxGeometry x="250" y="610" width="80" height="80" as="geometry" />
        </mxCell>
        <mxCell id="aoBe8RqoVNeD4NbxdGGK-24" value="" style="endArrow=classic;html=1;rounded=0;exitX=0;exitY=1;exitDx=0;exitDy=0;entryX=1;entryY=0;entryDx=0;entryDy=0;" edge="1" parent="1" source="aoBe8RqoVNeD4NbxdGGK-16" target="aoBe8RqoVNeD4NbxdGGK-18">
          <mxGeometry width="50" height="50" relative="1" as="geometry">
            <mxPoint x="579.9999999999968" y="240" as="sourcePoint" />
            <mxPoint x="653.5853409015033" y="273.4478822279559" as="targetPoint" />
          </mxGeometry>
        </mxCell>
        <mxCell id="aoBe8RqoVNeD4NbxdGGK-25" value="&lt;div&gt;&lt;b&gt;eidle&lt;/b&gt;&lt;br&gt;&lt;/div&gt;&lt;div&gt;err = 1&lt;/div&gt;&lt;div&gt;&lt;br&gt;&lt;/div&gt;" style="ellipse;whiteSpace=wrap;html=1;aspect=fixed;" vertex="1" parent="1">
          <mxGeometry x="385" y="380" width="80" height="80" as="geometry" />
        </mxCell>
        <mxCell id="aoBe8RqoVNeD4NbxdGGK-29" value="" style="endArrow=classic;html=1;rounded=0;exitX=0;exitY=0;exitDx=0;exitDy=0;" edge="1" parent="1" source="aoBe8RqoVNeD4NbxdGGK-25" target="aoBe8RqoVNeD4NbxdGGK-2">
          <mxGeometry width="50" height="50" relative="1" as="geometry">
            <mxPoint x="190" y="320" as="sourcePoint" />
            <mxPoint x="233.65981568526" y="270.1030677882742" as="targetPoint" />
          </mxGeometry>
        </mxCell>
        <mxCell id="aoBe8RqoVNeD4NbxdGGK-31" value="data_ready = 1" style="text;html=1;align=center;verticalAlign=middle;resizable=0;points=[];autosize=1;strokeColor=none;fillColor=none;" vertex="1" parent="1">
          <mxGeometry x="260" y="350" width="100" height="30" as="geometry" />
        </mxCell>
        <mxCell id="aoBe8RqoVNeD4NbxdGGK-34" value="" style="endArrow=classic;html=1;rounded=0;entryX=1;entryY=1;entryDx=0;entryDy=0;" edge="1" parent="1" target="aoBe8RqoVNeD4NbxdGGK-25">
          <mxGeometry width="50" height="50" relative="1" as="geometry">
            <mxPoint x="570" y="610" as="sourcePoint" />
            <mxPoint x="620" y="560" as="targetPoint" />
          </mxGeometry>
        </mxCell>
        <mxCell id="aoBe8RqoVNeD4NbxdGGK-35" value="overflow = 1" style="text;html=1;align=center;verticalAlign=middle;resizable=0;points=[];autosize=1;strokeColor=none;fillColor=none;" vertex="1" parent="1">
          <mxGeometry x="490" y="490" width="90" height="30" as="geometry" />
        </mxCell>
        <mxCell id="aoBe8RqoVNeD4NbxdGGK-36" value="else" style="text;html=1;align=center;verticalAlign=middle;resizable=0;points=[];autosize=1;strokeColor=none;fillColor=none;" vertex="1" parent="1">
          <mxGeometry x="225" y="470" width="50" height="30" as="geometry" />
        </mxCell>
        <mxCell id="aoBe8RqoVNeD4NbxdGGK-37" value="else (dr)" style="text;html=1;align=center;verticalAlign=middle;resizable=0;points=[];autosize=1;strokeColor=none;fillColor=none;" vertex="1" parent="1">
          <mxGeometry x="280" y="200" width="70" height="30" as="geometry" />
        </mxCell>
        <mxCell id="aoBe8RqoVNeD4NbxdGGK-38" value="if (lc)" style="text;html=1;align=center;verticalAlign=middle;resizable=0;points=[];autosize=1;strokeColor=none;fillColor=none;" vertex="1" parent="1">
          <mxGeometry x="150" y="205" width="50" height="30" as="geometry" />
        </mxCell>
        <mxCell id="aoBe8RqoVNeD4NbxdGGK-47" style="edgeStyle=orthogonalEdgeStyle;rounded=0;orthogonalLoop=1;jettySize=auto;html=1;entryX=0.5;entryY=0;entryDx=0;entryDy=0;" edge="1" parent="1" source="aoBe8RqoVNeD4NbxdGGK-43" target="aoBe8RqoVNeD4NbxdGGK-45">
          <mxGeometry relative="1" as="geometry" />
        </mxCell>
        <mxCell id="aoBe8RqoVNeD4NbxdGGK-43" value="&lt;div&gt;&lt;b&gt;Store&lt;/b&gt;&lt;/div&gt;&lt;div&gt;op = LOAD2&lt;/div&gt;&lt;div&gt;dest = 3&lt;/div&gt;&lt;div&gt;err = 0&lt;br&gt;&lt;/div&gt;" style="ellipse;whiteSpace=wrap;html=1;aspect=fixed;" vertex="1" parent="1">
          <mxGeometry x="60" y="320" width="80" height="80" as="geometry" />
        </mxCell>
        <mxCell id="aoBe8RqoVNeD4NbxdGGK-44" value="" style="edgeStyle=orthogonalEdgeStyle;rounded=0;orthogonalLoop=1;jettySize=auto;html=1;" edge="1" parent="1" source="aoBe8RqoVNeD4NbxdGGK-45" target="aoBe8RqoVNeD4NbxdGGK-46">
          <mxGeometry relative="1" as="geometry" />
        </mxCell>
        <mxCell id="aoBe8RqoVNeD4NbxdGGK-45" value="&lt;div&gt;&lt;b&gt;sort1&lt;/b&gt;&lt;/div&gt;&lt;div&gt;op = COPY&lt;br&gt;&lt;/div&gt;&lt;div&gt;dest = 4&lt;br&gt;&lt;/div&gt;&lt;div&gt;src1 = 5&lt;br&gt;&lt;/div&gt;" style="ellipse;whiteSpace=wrap;html=1;aspect=fixed;" vertex="1" parent="1">
          <mxGeometry x="60" y="440" width="80" height="80" as="geometry" />
        </mxCell>
        <mxCell id="aoBe8RqoVNeD4NbxdGGK-46" value="&lt;div&gt;&lt;b&gt;sort2&lt;/b&gt;&lt;/div&gt;&lt;div&gt;op = COPY&lt;br&gt;&lt;/div&gt;&lt;div&gt;dest = 5&lt;br&gt;&lt;/div&gt;&lt;div&gt;src1 = 6&lt;br&gt;&lt;/div&gt;" style="ellipse;whiteSpace=wrap;html=1;aspect=fixed;" vertex="1" parent="1">
          <mxGeometry x="60" y="580" width="80" height="80" as="geometry" />
        </mxCell>
        <mxCell id="aoBe8RqoVNeD4NbxdGGK-49" value="" style="endArrow=classic;html=1;rounded=0;exitX=1.013;exitY=0.596;exitDx=0;exitDy=0;exitPerimeter=0;entryX=0;entryY=1;entryDx=0;entryDy=0;" edge="1" parent="1" source="aoBe8RqoVNeD4NbxdGGK-46" target="aoBe8RqoVNeD4NbxdGGK-2">
          <mxGeometry width="50" height="50" relative="1" as="geometry">
            <mxPoint x="360" y="460" as="sourcePoint" />
            <mxPoint x="410" y="410" as="targetPoint" />
          </mxGeometry>
        </mxCell>
      </root>
    </mxGraphModel>
  </diagram>
</mxfile>
